<?xml version="1.0" encoding="UTF-8"?>
<svg width="33px" height="45px" viewBox="0 0 33 45" version="1.1" xmlns="http://www.w3.org/2000/svg" xmlns:xlink="http://www.w3.org/1999/xlink">
    <!-- Generator: Sketch 48.1 (47250) - http://www.bohemiancoding.com/sketch -->
    <title>Group Copy 3</title>
    <desc>Created with Sketch.</desc>
    <defs></defs>
    <g id="Interactions" stroke="none" stroke-width="1" fill="none" fill-rule="evenodd" transform="translate(-791.000000, -7815.000000)">
        <g id="Bitmap-+-Bitmap-Mask" transform="translate(300.000000, 7354.000000)">
            <g id="Group-Copy-3" transform="translate(491.000000, 461.000000)">
                <g id="Pin">
                    <path d="M0,15.75 C0,6.975 7.30714286,0 16.5,0 C25.6928571,0 33,6.975 33,15.75 C33,27.448583 16.5039963,44.9957492 16.5000007,44.9999992 C16.4998603,44.9998514 0,27.4499505 0,15.75 Z" id="Path" fill="#FFFFFF"></path>
                    <path d="M17.9330456,41.1060866 C19.8398944,38.8525381 21.7468846,36.418525 23.5241128,33.8980924 C25.7977608,30.6736461 27.6877847,27.5465156 29.0643841,24.6181133 C30.6543999,21.2357161 31.5,18.2376793 31.5,15.75 C31.5,7.81943751 24.8796369,1.5 16.5,1.5 C8.12036311,1.5 1.5,7.81943751 1.5,15.75 C1.5,18.2376793 2.34560012,21.2357161 3.93561588,24.6181133 C5.31221529,27.5465156 7.20223921,30.6736461 9.4758872,33.8980924 C11.2531154,36.418525 13.1601056,38.8525381 15.0669544,41.1060866 C15.5749617,41.7064589 16.0550268,42.260756 16.5,42.7638684 C16.9449732,42.260756 17.4250383,41.7064589 17.9330456,41.1060866 Z" id="Path" fill="#E42339"></path>
                    <path d="" id="Path" fill="#FFFFFF"></path>
                    <path d="M16.5,22.352459 C12.72,22.352459 9.75,19.382459 9.75,15.602459 C9.75,11.822459 12.72,8.85245902 16.5,8.85245902 C20.28,8.85245902 23.25,11.822459 23.25,15.602459 C23.25,19.382459 20.28,22.352459 16.5,22.352459 L16.5,22.352459 Z" id="Path" fill="#FFFFFF"></path>
                </g>
            </g>
        </g>
    </g>
</svg>