<?xml version="1.0" encoding="UTF-8"?>
<svg width="317px" height="138px" viewBox="0 0 317 138" version="1.1" xmlns="http://www.w3.org/2000/svg" xmlns:xlink="http://www.w3.org/1999/xlink">
    <!-- Generator: Sketch 49.3 (51167) - http://www.bohemiancoding.com/sketch -->
    <title>Group</title>
    <desc>Created with Sketch.</desc>
    <defs>
        <path d="M127.785377,114 L100.214623,114 C97.3340652,114 95,116.45889 95,119.493499 L95,138 L105.429246,138 L105.429246,124.986999 L122.570754,124.986999 L122.570754,138 L133,138 L133,119.493499 C133,116.45889 130.665935,114 127.785377,114 Z" id="path-1"></path>
        <path d="M46.9740552,117.092445 L115.091875,46.8893685 L186.123928,120.098553 C187.516589,121.535063 189.431234,122.344156 191.434637,122.344156 L200.15409,122.344156 L200.15409,137.997887 L210.720563,137.997887 L210.720563,122.344156 L279.455465,122.344156 L279.455465,137.997887 L290.021937,137.997887 L290.021937,122.344156 L309.60161,122.344156 C312.572902,122.344156 315.256786,120.567532 316.414871,117.831825 C317.572957,115.096119 316.981234,111.933685 314.912319,109.802158 L222.895252,14.9650517 C221.502591,13.5306544 219.587946,12.7194489 217.584543,12.7194489 L189.99971,12.7194489 L189.99971,5.28128588 C189.99971,2.36390356 187.634934,0 184.716474,0 L165.426323,0 L146.138284,0 C143.219824,0 140.855048,2.36390356 140.855048,5.28128588 L140.855048,12.7194489 L99.415457,12.7194489 C97.4141672,12.7194489 95.4974091,13.5306544 94.1047481,14.9650517 L2.08768097,109.804271 C0.0187656988,111.935798 -0.572956748,115.098232 0.585128612,117.833938 C1.74321397,120.569644 4.42498463,122.346269 7.39838993,122.346269 L36.4075829,122.346269 L36.4075829,138 L46.9740552,138 L46.9740552,117.092445 Z M170.709559,10.5646843 L179.433238,10.5646843 L179.433238,47.1872331 L170.709559,47.1872331 L170.709559,10.5646843 Z M151.42152,10.5646843 L160.143086,10.5646843 L160.143086,39.4364179 L151.42152,30.4476693 L151.42152,10.5646843 Z M140.855048,27.5091619 L140.855048,32.5876464 C140.855048,33.9607807 141.389711,35.2789897 142.344921,36.2655339 L161.632959,56.1464064 C161.643525,56.156969 161.656205,56.1633065 161.664658,56.1738691 C161.861195,56.3724455 162.078864,56.5456716 162.304987,56.7104478 C162.359932,56.7505855 162.408538,56.8033984 162.465597,56.8414237 C162.753005,57.035775 163.059433,57.2026636 163.382767,57.3378645 C163.418693,57.3526521 163.456732,57.3589897 163.492658,57.3716648 C163.777953,57.483628 164.071701,57.5808037 164.378129,57.6420666 C164.67399,57.701217 164.974078,57.7244546 165.278392,57.7329047 C165.329111,57.7350172 165.375604,57.7476923 165.426323,57.7476923 L184.716474,57.7476923 C187.634934,57.7476923 189.99971,55.3837887 189.99971,52.4664064 L189.99971,27.5091619 L214.450527,27.5091619 L292.120438,107.558668 L194.562313,107.558668 L116.894515,27.5091619 L140.855048,27.5091619 Z M24.8774484,107.558668 L99.415457,30.7349713 L107.729157,39.3033295 L41.5027358,107.558668 L24.8774484,107.558668 Z" id="path-2"></path>
    </defs>
    <g id="Symbols" stroke="none" stroke-width="1" fill="none" fill-rule="evenodd">
        <g id="Shapka" transform="translate(-1298.000000, -15.000000)" fill-rule="nonzero">
            <g id="Group-3">
                <g id="Bitmap">
                    <g id="Group" transform="translate(1298.000000, 15.000000)">
                        <g id="ico_shapka">
                            <g id="Shape">
                                <use fill="#1B653C" fill-rule="evenodd" xlink:href="#path-1"></use>
                                <use fill="#126D48" fill-rule="evenodd" xlink:href="#path-1"></use>
                            </g>
                            <g id="Shape">
                                <use fill="#1B653C" fill-rule="evenodd" xlink:href="#path-2"></use>
                                <use fill="#126D48" fill-rule="evenodd" xlink:href="#path-2"></use>
                            </g>
                        </g>
                    </g>
                </g>
            </g>
        </g>
    </g>
</svg>