<?xml version="1.0" encoding="UTF-8"?>
<svg width="100px" height="51px" viewBox="0 0 100 51" version="1.1" xmlns="http://www.w3.org/2000/svg" xmlns:xlink="http://www.w3.org/1999/xlink">
    <!-- Generator: Sketch 48.1 (47250) - http://www.bohemiancoding.com/sketch -->
    <title>Fill 1</title>
    <desc>Created with Sketch.</desc>
    <defs></defs>
    <g id="Logo_contur" stroke="none" stroke-width="1" fill="none" fill-rule="evenodd" transform="translate(-44.000000, -33.000000)">
        <path d="M90.4752966,62.2203275 C86.5053702,62.2203275 83.2875128,65.0971932 83.2875128,68.6479557 C83.2875128,72.1973705 86.5053702,75.0755839 90.4752966,75.0755839 C94.4445491,75.0755839 97.6637544,72.1973705 97.6637544,68.6479557 C97.6637544,65.0971932 94.4445491,62.2203275 90.4752966,62.2203275 Z M143.786603,53.9017448 L143.786603,33.0001599 L138.312539,33.0001599 L138.312539,49.7458229 L127.660925,49.7458229 L127.660925,33.0001599 L122.187535,33.0001599 L122.187535,49.7458229 L111.536595,49.7458229 L111.536595,33.0001599 L106.061857,33.0001599 L106.061857,53.9017448 L143.786603,53.9017448 Z M77.8673603,53.9017448 L80.8352021,48.6311975 L94.3886156,48.6311975 L97.3234364,53.9017448 L103.753086,53.9017448 L91.7172885,33.0001599 L83.6049182,33.0001599 L71.4693836,53.9017448 L77.8673603,53.9017448 Z M83.0435621,44.6855314 L87.5620405,36.9148267 L87.8255342,36.9148267 L92.1789079,44.6855314 L83.0435621,44.6855314 Z M49.4740642,36.9451521 L60.6203181,36.9451521 C61.379126,36.9505433 61.9499166,37.1412561 62.3299945,37.5071821 C62.7087245,37.8784992 62.8960678,38.3805524 62.8960678,39.02345 C62.8960678,39.4904605 62.8131785,39.9069288 62.6426826,40.2735287 C62.4782518,40.6394547 62.2248665,40.9258608 61.895331,41.1367905 C61.5604042,41.3531114 61.1479794,41.4582393 60.6526652,41.4629566 L49.4740642,41.4629566 L49.4740642,36.9451521 Z M44,53.9018529 L61.6102726,53.9017448 C63.3347747,53.9071359 64.7641099,53.711032 65.8969305,53.3046722 C67.0290772,52.9030296 67.8701005,52.2500236 68.4301088,51.3470018 C68.9860737,50.4433061 69.2596758,49.2491609 69.2596758,47.7578271 C69.2596758,46.9444336 69.1713953,46.2570588 68.9961821,45.7098546 C68.8256862,45.1572592 68.57904,44.701031 68.2495044,44.3445396 C67.9240123,43.9934393 67.533826,43.6969247 67.0782717,43.4711692 C66.6166524,43.2447399 66.1051646,43.0445925 65.534374,42.8788139 C65.9959933,42.7480779 66.4016793,42.5876905 66.7541273,42.401021 C67.1112926,42.2109821 67.4084812,41.9495101 67.6443451,41.6186268 C67.8856001,41.2924607 68.0675523,40.8557755 68.1888537,40.3132886 C68.3094813,39.7660843 68.370132,39.0787095 68.370132,38.2403819 C68.3640669,36.9606517 68.0614872,35.9356546 67.4576756,35.1680861 C66.8471251,34.4005176 65.9629724,33.8432049 64.7917397,33.5015392 C63.6211808,33.1605474 62.1871283,32.9940948 60.4889082,33.0001599 L44,33 L44,53.9018529 Z M49.4740642,45.1673676 L60.6526652,45.1673676 C61.3562135,45.1673676 61.9168957,45.2125187 62.3407768,45.3082121 C62.757919,45.4032315 63.0773461,45.5494671 63.2862541,45.7448972 C63.4951621,45.9362839 63.6319632,46.1822563 63.6980051,46.4774231 C63.764047,46.7692204 63.7916767,47.1156034 63.7862856,47.517246 C63.7916767,47.9734741 63.7586558,48.3602909 63.6811577,48.6709574 C63.6050073,48.987015 63.4513588,49.2383785 63.2195383,49.4243741 C62.9944568,49.6150869 62.65953,49.7505401 62.2147581,49.836125 C61.7693123,49.9163188 61.1863915,49.9560787 60.4552134,49.9560787 L49.4740642,49.9560787 L49.4740642,45.1673676 Z M107.191982,58.0981005 L117.244501,58.0981005 L124.727452,74.8444373 L125.053618,74.8444373 L132.536569,58.0981005 L142.589088,58.0981005 L142.589088,79.0010331 L137.188479,79.0010331 L137.188479,62.2546963 L136.4728,62.2546963 L128.729052,79.0010331 L121.052019,79.0010331 L113.308944,62.2546963 L112.592591,62.2546963 L112.592591,79.0010331 L107.191982,79.0010331 L107.191982,58.0981005 Z M46.3229225,74.8444373 L44.7938505,74.8444373 L44.7938505,84 L49.7389056,84 L49.7389056,79.0010331 L69.1943078,79.0010331 L69.1943078,84 L74.1056681,84 L74.1056681,74.8444373 L71.6014674,74.8444373 L71.6014674,58.0981005 L49.0232272,58.0981005 L49.0232272,68.097382 C49.0286183,69.0866626 48.9416856,69.9795759 48.763103,70.7781437 C48.5892376,71.5760376 48.3021575,72.3038462 47.9059062,72.9669607 C47.5103287,73.6294013 46.979298,74.2567993 46.3229225,74.8444373 Z M66.200858,74.8444373 L52.3745162,74.8444373 C52.8078319,74.2770162 53.1609538,73.6947693 53.4318604,73.1078051 C53.7081581,72.5154498 53.9089794,71.8920952 54.0390414,71.239763 C54.1630385,70.5874309 54.2284065,69.8798392 54.2284065,69.1210313 L54.2284065,62.2546963 L66.200858,62.2546963 L66.200858,74.8444373 Z M90.4752966,57.6674804 C83.6925248,57.6674804 78.1955481,62.5835579 78.1955481,68.6479557 C78.1955481,74.7123535 83.6925248,79.629105 90.4752966,79.629105 C97.2567207,79.629105 102.754371,74.7123535 102.754371,68.6479557 C102.754371,62.5835579 97.2567207,57.6674804 90.4752966,57.6674804 Z" id="Fill-1" fill="#C60A10"></path>
    </g>
</svg>