<svg xmlns="http://www.w3.org/2000/svg" xmlns:xlink="http://www.w3.org/1999/xlink" width="46" height="61" viewBox="0 0 46 61"><defs><path id="x08ka" d="M1012.89 2209.35h-.02zm.89-.22c.26-.2.43-.5.47-.83a13.53 13.53 0 0 1 7.16-9.82 8.03 8.03 0 0 0 1.6 5.03c1.3 1.5 3.2 2.3 5.15 2.2 1.9.1 3.75-.7 5-2.18a8.1 8.1 0 0 0 1.47-5.14 13.95 13.95 0 0 1 7.22 9.9c.06.33.24.62.5.82.27.19.6.26.92.2.28.24.42.61.37.98 0 .9-.97 1.2-1.67 1.28-18.34 1.96-27.48-.29-27.58-.3h-.05c-.57-.1-1.54-.36-1.67-1.12-.04-.28.03-.58.22-.8.3.05.63-.03.89-.22zm14.22-11.99c1.42-.03 2.84.13 4.22.46a6.46 6.46 0 0 1-.88 4.37c-.82.91-2 1.37-3.2 1.26a4.02 4.02 0 0 1-3.34-1.29 6.31 6.31 0 0 1-.91-4.37c1.35-.31 2.73-.45 4.11-.43zm.14 30.5c-8.62 0-10.92-9.55-11.49-13.4 7.65.88 15.37.9 23.02.04-.5 3.74-2.78 13.36-11.53 13.36zm-14-13.9c.67 6.15 4.27 16.33 14 16.33 9.74 0 13.34-10 14.08-16.03a4.03 4.03 0 0 0 3.62-2.43c.5-1.26.3-2.69-.5-3.76a2.74 2.74 0 0 0-1.25-.9 15.77 15.77 0 0 0-15.84-12.38h-.24c-7.52-.32-14.2 4.9-15.92 12.43-.37.14-.7.37-.97.67a3.5 3.5 0 0 0-.7 3.42 4.03 4.03 0 0 0 3.47 2.64zm34.01 38.26h-4.41v-7.79c0-.69-.55-1.25-1.22-1.25h-2.85v-12.72c8.7 4.48 8.57 14.57 8.48 21.38v.38zm-6.81 0h-26.67v-6.55h26.67zm-28.97-7.79v7.79h-4.5v-.47c-.08-6.58-.22-16.3 7.68-20.94v12.3h-2.01c-.34 0-.66.14-.89.4-.23.24-.35.58-.33.92zm5.63-13.42c3.34 2.45 10.97 6.7 19.34.65v11.54H1018zm21.5-3.36a1.23 1.23 0 0 0-1.66.34c-10.14 9.55-19.44.23-19.84-.15a1.2 1.2 0 0 0-1.3-.27c-11.51 4.73-11.35 17.46-11.25 24.3v1.72c.01.68.54 1.22 1.2 1.23h42.69c.66 0 1.19-.55 1.2-1.23v-1.72c.11-6.8.28-19.44-11.04-24.22z"/></defs><g><g transform="translate(-1005 -2194)"><use fill="#eb3449" xlink:href="#x08ka"/></g></g></svg>