<svg xmlns="http://www.w3.org/2000/svg" xmlns:xlink="http://www.w3.org/1999/xlink" width="62" height="63" viewBox="0 0 62 63"><defs><path id="1edea" d="M1373.03 2206.07c-.55 0-1-.46-1-1.03 0-.57.45-1.03 1-1.03 2.54 0 7.34.55 10.9 4.21 3.57 3.67 4.1 8.6 4.1 11.22 0 .57-.45 1.03-1 1.03s-1-.46-1-1.03c0-2.3-.46-6.62-3.5-9.76-3.06-3.14-7.27-3.61-9.5-3.61zm0-6.17c-.55 0-1-.45-1-1.02 0-.56.43-1.03.98-1.04 5.87-.07 11.36 2.1 15.17 6.02 3.89 4 6.02 9.7 5.85 15.61-.02.56-.46 1-1 1h-.03c-.55-.02-.99-.5-.97-1.06a19.43 19.43 0 0 0-5.27-14.1 18.64 18.64 0 0 0-13.71-5.41h-.02zm19.4-.4a27.65 27.65 0 0 1 7.6 19.97c-.02.56-.46 1-1 1h-.03a1.02 1.02 0 0 1-.97-1.06 25.56 25.56 0 0 0-7.02-18.46 24.18 24.18 0 0 0-17.95-7.22c-.55.03-1.01-.43-1.03-1-.01-.57.42-1.04.97-1.06a26.03 26.03 0 0 1 19.42 7.82zm-12.92 38.5l8.55 8.79a1.04 1.04 0 0 1 0 1.45c-3.32 3.41-6.84 5.13-10.52 5.13-1.8 0-3.66-.42-5.54-1.25-.27-.11-7.4-3.11-17.4-13.4-10-10.28-12.93-17.62-13.05-17.92-2.89-5.95-1.8-10.75 3.79-16.5l5.7-5.85a1 1 0 0 1 1.4 0l11.4 11.71a1.04 1.04 0 0 1 0 1.46l-2.84 2.93c-.4.4-1.03.4-1.42 0-.39-.4-.39-1.05 0-1.46l2.14-2.2-9.98-10.26-4.99 5.13c-4.93 5.07-5.87 9.05-3.37 14.2.06.14 2.95 7.36 12.63 17.3 9.71 10 16.69 12.93 16.76 12.96 4.7 2.07 9 1.18 13.16-2.72l-7.83-8.05a1.05 1.05 0 0 1 0-1.45.98.98 0 0 1 1.41 0zm14.25 4.39l-2.8 2.89a.98.98 0 0 1-1.42 0c-.39-.4-.39-1.06 0-1.46l2.1-2.16-9.98-10.26-5 5.13c-3.18 3.28-9.48 3.42-16.37-3.66-6.37-6.56-6.73-12.6-4.21-16.06l-7.9-8.12a1.05 1.05 0 0 1 0-1.45.98.98 0 0 1 1.42 0l8.55 8.79c.39.4.39 1.05 0 1.45-2.49 2.56-2.35 7.86 3.56 13.93 5.9 6.08 11.06 6.22 13.54 3.67l5.7-5.87a1 1 0 0 1 1.41 0l11.4 11.73c.39.4.39 1.05 0 1.45z"/></defs><g><g transform="translate(-1339 -2191)"><use fill="#eb3449" xlink:href="#1edea"/><use fill="#fff" fill-opacity="0" stroke="#eb3449" stroke-miterlimit="50" xlink:href="#1edea"/></g></g></svg>