<svg xmlns="http://www.w3.org/2000/svg" xmlns:xlink="http://www.w3.org/1999/xlink" width="41" height="61" viewBox="0 0 41 61"><defs><path id="gyd5a" d="M358.01 2212.82c-.55-.26-.81-.9-.61-1.5a7.75 7.75 0 0 0 0-4.13 6.82 6.82 0 0 0-6.37-5.14 7.07 7.07 0 0 0-6.67 4c-.7 1.55-.9 3.29-.56 4.97a1.2 1.2 0 0 1-.83 1.45c-.6.17-1.24-.2-1.42-.82-.5-2.22-.25-4.55.68-6.62a9.38 9.38 0 0 1 8.92-5.38 9.1 9.1 0 0 1 8.46 6.86c.5 1.84.47 3.78-.1 5.6-.22.62-.9.94-1.5.7zm15.82 17.6c.1-.7-.1-1.41-.55-1.95a2.4 2.4 0 0 0-1.78-.88c-1.05 0-2.3.74-2.3 2.78v1.85c0 .53-.34 1-.84 1.15h-.65a1.16 1.16 0 0 1-.73-.7 1.23 1.23 0 0 1 0-.43v-5.33a2.93 2.93 0 0 0-.73-2.13 2.33 2.33 0 0 0-2.51-.43 2.45 2.45 0 0 0-1.46 2.15v2.6c0 .66-.52 1.2-1.17 1.2-.64 0-1.16-.54-1.16-1.2v-6.34c0-.64-.27-1.24-.72-1.67a2.18 2.18 0 0 0-1.68-.6c-.6-.04-1.18.17-1.61.6a2.17 2.17 0 0 0-.64 1.62v6.37c0 .43-.23.83-.59 1.04-.36.22-.8.22-1.16 0a1.2 1.2 0 0 1-.59-1.04v-19.52c.05-.65-.2-1.28-.66-1.72a2.37 2.37 0 0 0-1.67-.54 2.18 2.18 0 0 0-1.68.58 2.3 2.3 0 0 0-.72 1.66v29.98c0 .43-.22.83-.58 1.04-.36.22-.8.22-1.17 0a1.2 1.2 0 0 1-.58-1.04v-7.18a2.15 2.15 0 0 0-.71-1.53c-.44-.39-1-.57-1.58-.5-.6-.01-1.2.2-1.66.6a2.2 2.2 0 0 0-.72 1.7V2244.75a7.46 7.46 0 0 0 7.32 7.5h16.8c2.2.21 4.4-.56 6.02-2.13a8.12 8.12 0 0 0 2.46-6.04zm-2.33-5.21c1.3.02 2.54.59 3.42 1.58.89.99 1.33 2.31 1.23 3.65v13.68c0 3.92-2.27 10.58-10.8 10.58H348.5a9.84 9.84 0 0 1-9.65-9.91v-8.68-3.43a4.57 4.57 0 0 1 4.75-4.74c.8 0 1.57.17 2.29.53v-18.86c0-1.27.5-2.48 1.4-3.36.9-.88 2.1-1.34 3.33-1.29 1.14-.01 2.25.4 3.12 1.15a4.5 4.5 0 0 1 1.46 3.43v9.1c.7-.36 1.47-.54 2.25-.54a4.6 4.6 0 0 1 4.72 4.32c.74-.41 1.56-.63 2.4-.62a4.51 4.51 0 0 1 3.2 1.28 4.92 4.92 0 0 1 1.37 2.8 4.4 4.4 0 0 1 2.35-.67zm-32.95-12.63c.26.4.26.93 0 1.33-.27.4-.74.6-1.2.5-.47-.09-.83-.47-.92-.94a14.68 14.68 0 0 1 1.08-10.51c2.5-5.53 8.07-8.9 13.99-8.45 6.27.16 11.7 4.55 13.33 10.78.79 2.88.74 5.94-.13 8.8-.25.59-.9.87-1.49.65a1.2 1.2 0 0 1-.7-1.5c.67-2.39.67-4.92 0-7.32a11.97 11.97 0 0 0-11.23-9.01 11.97 11.97 0 0 0-11.75 7.1 12.3 12.3 0 0 0-.98 8.57z"/></defs><g><g transform="translate(-336 -2194)"><use fill="#eb3449" xlink:href="#gyd5a"/></g></g></svg>