<svg xmlns="http://www.w3.org/2000/svg" xmlns:xlink="http://www.w3.org/1999/xlink" width="53" height="61" viewBox="0 0 53 61"><defs><path id="o6ira" d="M714.93 2216.76l-7.6-7.82 3.7-3.8 7.63 7.7zm-17.77 18.27l-7.6-7.82 16.22-16.68 7.6 7.82zm-10.45 3.26l1.95-8.81 6.39 6.56zm34.34-26.25l-9.27-9.29a1.08 1.08 0 0 0-1.55 0l-23 23.68-.12.18a1.1 1.1 0 0 0-.08.21l-2.87 12.79c-.07.33 0 .69.21.96.2.27.52.43.86.43h.28l11.92-3.23.2-.1.18-.12 23.25-23.9a1.15 1.15 0 0 0 0-1.6z"/><path id="o6irb" d="M689.62 2254.57h-18.79c-.6 0-1.1-.5-1.1-1.13v-57.74c0-.62.5-1.13 1.1-1.13h18.79c.6 0 1.1.5 1.1 1.13v29.49c0 .62-.5 1.13-1.1 1.13-.61 0-1.1-.5-1.1-1.13v-28.36H672v55.48h16.58v-13.12c0-.62.5-1.13 1.1-1.13.61 0 1.1.5 1.1 1.13v14.25c0 .31-.12.61-.34.83-.22.21-.52.32-.82.3z"/><path id="o6irc" d="M680.15 2208.66h-9.32c-.6 0-1.1-.5-1.1-1.13 0-.62.5-1.13 1.1-1.13h9.32c.6 0 1.1.5 1.1 1.13 0 .63-.5 1.13-1.1 1.13z"/><path id="o6ird" d="M680.15 2220h-9.32c-.6 0-1.1-.51-1.1-1.14 0-.62.5-1.13 1.1-1.13h9.32c.6 0 1.1.5 1.1 1.13 0 .63-.5 1.13-1.1 1.13z"/><path id="o6ire" d="M680.15 2231.33h-9.32c-.6 0-1.1-.51-1.1-1.14 0-.62.5-1.13 1.1-1.13h9.32c.6 0 1.1.5 1.1 1.13 0 .63-.5 1.14-1.1 1.14z"/><path id="o6irf" d="M680.15 2242.66h-9.32c-.6 0-1.1-.5-1.1-1.13 0-.63.5-1.14 1.1-1.14h9.32c.6 0 1.1.51 1.1 1.14 0 .62-.5 1.13-1.1 1.13z"/></defs><g><g transform="translate(-669 -2194)"><use fill="#eb3449" xlink:href="#o6ira"/></g><g transform="translate(-669 -2194)"><use fill="#eb3449" xlink:href="#o6irb"/></g><g transform="translate(-669 -2194)"><use fill="#eb3449" xlink:href="#o6irc"/></g><g transform="translate(-669 -2194)"><use fill="#eb3449" xlink:href="#o6ird"/></g><g transform="translate(-669 -2194)"><use fill="#eb3449" xlink:href="#o6ire"/></g><g transform="translate(-669 -2194)"><use fill="#eb3449" xlink:href="#o6irf"/></g></g></svg>