<?xml version="1.0" encoding="UTF-8"?>
<svg width="32px" height="36px" viewBox="0 0 32 36" version="1.1" xmlns="http://www.w3.org/2000/svg" xmlns:xlink="http://www.w3.org/1999/xlink">
    <!-- Generator: Sketch 48.1 (47250) - http://www.bohemiancoding.com/sketch -->
    <title>Resurs_1</title>
    <desc>Created with Sketch.</desc>
    <defs></defs>
    <g id="Resurs_1" stroke="none" stroke-width="1" fill="none" fill-rule="evenodd" transform="translate(-10.000000, -6.000000)">
        <g fill-rule="nonzero">
            <rect id="Rectangle-path" fill-opacity="0" fill="#FFFFFF" x="0" y="0" width="48" height="48"></rect>
            <path d="M41.43,16.69 L35.87,11.27 C35.6126454,11.0144998 35.1973546,11.0144998 34.94,11.27 L21.14,25.08 L21.07,25.19 C21.0492399,25.2281688 21.032484,25.2683828 21.02,25.31 L19.3,32.77 C19.2543298,32.9656826 19.300293,33.1715125 19.4248683,33.3291781 C19.5494436,33.4868438 19.7390603,33.5791697 19.94,33.58 L20.11,33.58 L27.26,31.7 L27.38,31.64 L27.49,31.57 L41.44,17.63 C41.5658113,17.5059669 41.6366427,17.3366711 41.6366427,17.16 C41.6366427,16.9833289 41.5658113,16.8140331 41.44,16.69 L41.43,16.69 Z M20.83,32 L22,26.86 L25.83,30.69 L20.83,32 Z M27.1,30.1 L22.54,25.54 L32.27,15.81 L36.83,20.37 L27.1,30.1 Z M37.76,19.44 L33.2,14.88 L35.42,12.66 L40,17.16 L37.76,19.44 Z" id="Shape" fill="#EB3449"></path>
            <path d="M22.57,41.5 L11.3,41.5 C10.9354921,41.5 10.64,41.2045079 10.64,40.84 L10.64,7.16 C10.64,6.79549207 10.9354921,6.5 11.3,6.5 L22.57,6.5 C22.9345079,6.5 23.23,6.79549207 23.23,7.16 L23.23,24.36 C23.23,24.7245079 22.9345079,25.02 22.57,25.02 C22.2054921,25.02 21.91,24.7245079 21.91,24.36 L21.91,7.82 L12,7.82 L12,40.18 L21.95,40.18 L21.95,32.53 C21.95,32.1654921 22.2454921,31.87 22.61,31.87 C22.9745079,31.87 23.27,32.1654921 23.27,32.53 L23.27,40.84 C23.2703349,41.0221989 23.1953359,41.1964313 23.0627696,41.3214223 C22.9302034,41.4464133 22.7518643,41.5110427 22.57,41.5 Z" id="Shape" fill="#EB3449"></path>
            <path d="M16.89,14.72 L11.3,14.72 C10.9354921,14.72 10.64,14.4245079 10.64,14.06 C10.64,13.6954921 10.9354921,13.4 11.3,13.4 L16.89,13.4 C17.2545079,13.4 17.55,13.6954921 17.55,14.06 C17.55,14.4245079 17.2545079,14.72 16.89,14.72 Z" id="Shape" fill="#EB3449"></path>
            <path d="M16.89,21.33 L11.3,21.33 C10.9354921,21.33 10.64,21.0345079 10.64,20.67 C10.64,20.3054921 10.9354921,20.01 11.3,20.01 L16.89,20.01 C17.2545079,20.01 17.55,20.3054921 17.55,20.67 C17.55,21.0345079 17.2545079,21.33 16.89,21.33 Z" id="Shape" fill="#EB3449"></path>
            <path d="M16.89,27.94 L11.3,27.94 C10.9354921,27.94 10.64,27.6445079 10.64,27.28 C10.64,26.9154921 10.9354921,26.62 11.3,26.62 L16.89,26.62 C17.2545079,26.62 17.55,26.9154921 17.55,27.28 C17.55,27.6445079 17.2545079,27.94 16.89,27.94 Z" id="Shape" fill="#EB3449"></path>
            <path d="M16.89,34.55 L11.3,34.55 C10.9354921,34.55 10.64,34.2545079 10.64,33.89 C10.64,33.5254921 10.9354921,33.23 11.3,33.23 L16.89,33.23 C17.2545079,33.23 17.55,33.5254921 17.55,33.89 C17.55,34.2545079 17.2545079,34.55 16.89,34.55 Z" id="Shape" fill="#EB3449"></path>
        </g>
    </g>
</svg>