<?xml version="1.0" encoding="UTF-8"?>
<svg width="28px" height="36px" viewBox="0 0 28 36" version="1.1" xmlns="http://www.w3.org/2000/svg" xmlns:xlink="http://www.w3.org/1999/xlink">
    <!-- Generator: Sketch 48.1 (47250) - http://www.bohemiancoding.com/sketch -->
    <title>Resurs_4</title>
    <desc>Created with Sketch.</desc>
    <defs></defs>
    <g id="Resurs_1-Copy-3" stroke="none" stroke-width="1" fill="none" fill-rule="evenodd" transform="translate(-10.000000, -6.000000)">
        <g id="Resurs_4" fill-rule="nonzero">
            <rect id="Rectangle-path" fill-opacity="0" fill="#FFFFFF" x="0" y="0" width="48" height="48"></rect>
            <path d="M30.9,25.67 C30.5656511,25.4649221 30.1297536,25.5521016 29.9,25.87 C23.82,31.44 18.24,26 18,25.78 C17.7945329,25.5770834 17.4887605,25.5143609 17.22,25.62 C10.31,28.38 10.41,35.81 10.47,39.8 C10.47,40.15 10.47,40.48 10.47,40.8 C10.4753803,41.195395 10.794605,41.5146197 11.19,41.52 L36.8,41.52 C37.195395,41.5146197 37.5146197,41.195395 37.52,40.8 C37.52,40.5 37.52,40.17 37.52,39.8 C37.59,35.83 37.69,28.46 30.9,25.67 Z M18,27.63 C20,29.06 24.58,31.54 29.6,28.01 L29.6,34.74 L18,34.74 L18,27.63 Z M14.62,35.46 L14.62,40 L11.92,40 C11.92,39.9133333 11.92,39.8233333 11.92,39.73 C11.87,35.89 11.79,30.22 16.53,27.51 L16.53,34.69 L15.32,34.69 C15.119258,34.6896984 14.9272505,34.7720751 14.7891386,34.9177548 C14.6510267,35.0634344 14.5790002,35.2595594 14.59,35.46 L14.62,35.46 Z M32,40 L16,40 L16,36.18 L32,36.18 L32,40 Z M36.09,39.73 C36.09,39.82 36.09,39.91 36.09,40 L33.44,40 L33.44,35.46 C33.44,35.0568321 33.1131679,34.73 32.71,34.73 L31,34.73 L31,27.31 C36.22,29.92 36.14,35.81 36.09,39.78 L36.09,39.73 Z M15.53,17.68 L15.68,17.68 C16.08,21.27 18.24,27.21 24.08,27.21 C29.92,27.21 32.08,21.38 32.52,17.86 C33.457306,17.8468953 34.3027372,17.2936638 34.69,16.44 C34.9884814,15.7088339 34.8741152,14.8739611 34.39,14.25 C34.195576,14.0055125 33.9353727,13.8216355 33.64,13.72 C32.5990525,9.35660204 28.6227974,6.33464812 24.14,6.5 L24,6.5 C19.4897757,6.31321734 15.482312,9.35553266 14.45,13.75 C14.2289972,13.8331823 14.0304145,13.9667121 13.87,14.14 C13.3742546,14.6794217 13.2131205,15.446727 13.45,16.14 C13.7855151,17.013647 14.5964681,17.6140641 15.53,17.68 Z M24.08,25.79 C18.91,25.79 17.53,20.22 17.19,17.97 C21.7782699,18.4870069 26.4095272,18.4970675 31,18 C30.7,20.18 29.33,25.79 24.08,25.79 Z M21.53,8.25 C22.340595,8.06956151 23.1696891,7.9856451 24,8 C24.85132,7.98352338 25.7013302,8.07423592 26.53,8.27 C26.670088,9.15618807 26.4816077,10.0630271 26,10.82 C25.5084561,11.3488351 24.7987245,11.618681 24.08,11.55 C23.3337099,11.6190698 22.5968576,11.3427502 22.08,10.8 C21.5843195,10.0486507 21.388092,9.13886843 21.53,8.25 Z M14.92,15.13 C15.1112911,15.161514 15.3072079,15.1145535 15.4634255,14.9997429 C15.6196432,14.8849324 15.7229595,14.7119746 15.75,14.52 C16.1831339,12.0321552 17.7766848,9.89999149 20.04,8.78 C20.0119138,9.84130651 20.3510073,10.8797805 21,11.72 C21.7803254,12.5963794 22.9185298,13.0678687 24.09,13 C25.2320549,13.0603208 26.3383836,12.591975 27.09,11.73 C27.721542,10.8619079 28.0325394,9.80168929 27.97,8.73 C30.2327634,9.87952348 31.8327943,12.0153615 32.3,14.51 C32.3317211,14.7030013 32.4395655,14.8752006 32.5993568,14.9879945 C32.7591482,15.1007884 32.9575194,15.1447413 33.15,15.11 C33.3183597,15.2481698 33.4018738,15.4645471 33.37,15.68 C33.37,16.21 32.79,16.38 32.37,16.43 C21.37,17.57 15.89,16.26 15.83,16.25 L15.8,16.25 C15.46,16.19 14.88,16.04 14.8,15.6 C14.7735328,15.4319171 14.8209208,15.2605913 14.93,15.13 L14.92,15.13 Z" id="Shape" fill="#EB3449"></path>
        </g>
    </g>
</svg>