<?xml version="1.0" encoding="UTF-8"?>
<svg width="62px" height="62px" viewBox="0 0 62 62" version="1.1" xmlns="http://www.w3.org/2000/svg" xmlns:xlink="http://www.w3.org/1999/xlink">
    <!-- Generator: Sketch 51.3 (57544) - http://www.bohemiancoding.com/sketch -->
    <title>phone-handle</title>
    <desc>Created with Sketch.</desc>
    <defs></defs>
    <g id="Symbols" stroke="none" stroke-width="1" fill="none" fill-rule="evenodd">
        <g id="WhatWeDoElement+baba-Copy-4" transform="translate(-30.000000, -22.000000)" fill="#EB3449" stroke="#EB3449">
            <path d="M84.7581524,70.9099013 C85.1491524,71.3009013 85.1491524,71.9339013 84.7581524,72.3239013 L81.9561524,75.1289013 C81.7611524,75.3239013 81.5051524,75.4219013 81.2491524,75.4219013 C80.9931524,75.4219013 80.7371524,75.3239013 80.5421524,75.1289013 C80.1511524,74.7389013 80.1511524,74.1049013 80.5421524,73.7149013 L82.6371524,71.6179013 L72.6551524,61.6349013 L67.6651524,66.6259013 C64.4771524,69.8139013 58.1791524,69.9499013 51.2941524,63.0649013 C44.9191524,56.6899013 44.5621524,50.8179013 47.0751524,47.4519013 L39.1861524,39.5609013 C38.7961524,39.1709013 38.7961524,38.5369013 39.1861524,38.1469013 C39.5771524,37.7569013 40.2101524,37.7569013 40.6001524,38.1469013 L49.1451524,46.6939013 C49.5361524,47.0839013 49.5361524,47.7169013 49.1451524,48.1079013 C46.6621524,50.5919013 46.8011524,55.7429013 52.7081524,61.6509013 C58.6161524,67.5589013 63.7671524,67.6949013 66.2511524,65.2119013 L71.9481524,59.5139013 C72.3231524,59.1389013 72.9871524,59.1389013 73.3621524,59.5139013 L84.7581524,70.9099013 L84.7581524,70.9099013 Z M70.5141524,68.0609013 C70.1241524,67.6699013 69.4911524,67.6699013 69.1001524,68.0609013 C68.7101524,68.4519013 68.7101524,69.0839013 69.1001524,69.4749013 L76.9251524,77.2999013 C72.7721524,81.0939013 68.4691524,81.9609013 63.7671524,79.9469013 C63.6981524,79.9199013 56.7231524,77.0629013 47.0101524,67.3489013 C37.3341524,57.6729013 34.4381524,50.6599013 34.3771524,50.5149013 C31.8751524,45.5119013 32.8201524,41.6409013 37.7511524,36.7119013 L42.7411524,31.7219013 L52.7231524,41.7029013 L50.5811524,43.8449013 C50.1901524,44.2349013 50.1901524,44.8679013 50.5811524,45.2589013 C50.9711524,45.6489013 51.6041524,45.6489013 51.9951524,45.2589013 L54.8451524,42.4099013 C55.0321524,42.2219013 55.1371524,41.9679013 55.1371524,41.7029013 C55.1371524,41.4379013 55.0321524,41.1829013 54.8451524,40.9959013 L43.4481524,29.5999013 C43.0731524,29.2249013 42.4091524,29.2249013 42.0341524,29.5999013 L36.3371524,35.2979013 C30.7461524,40.8879013 29.6601524,45.5549013 32.5531524,51.3339013 C32.6741524,51.6319013 35.5941524,58.7619013 45.5951524,68.7629013 C55.5971524,78.7649013 62.7261524,81.6849013 63.0031524,81.7949013 C64.8831524,82.6019013 66.7311524,83.0039013 68.5411524,83.0039013 C72.2211524,83.0039013 75.7431524,81.3399013 79.0611524,78.0219013 C79.2491524,77.8349013 79.3541524,77.5799013 79.3541524,77.3149013 C79.3541524,77.0499013 79.2491524,76.7959013 79.0611524,76.6079013 L70.5141524,68.0609013 L70.5141524,68.0609013 Z M83.4211524,30.6199013 C78.3801524,25.5799013 71.3051524,22.7939013 64.0021524,23.0119013 C63.4501524,23.0279013 63.0151524,23.4879013 63.0301524,24.0399013 C63.0461524,24.5929013 63.5141524,25.0469013 64.0581524,25.0119013 C70.7991524,24.8369013 77.3531524,27.3819013 82.0071524,32.0339013 C86.6591524,36.6859013 89.2201524,43.2289013 89.0301524,49.9839013 C89.0151524,50.5359013 89.4501524,50.9959013 90.0021524,51.0119013 L90.0311524,51.0119013 C90.5701524,51.0119013 91.0141524,50.5819013 91.0301524,50.0399013 C91.2341524,42.7379013 88.4611524,35.6589013 83.4211524,30.6199013 L83.4211524,30.6199013 Z M64.0301524,31.0119013 L64.0461524,31.0119013 C69.3351524,30.9179013 74.3371524,32.8499013 77.7641524,36.2769013 C81.2671524,39.7819013 83.1871524,44.7769013 83.0301524,49.9819013 C83.0131524,50.5339013 83.4481524,50.9949013 84.0001524,51.0119013 L84.0311524,51.0119013 C84.5691524,51.0119013 85.0131524,50.5839013 85.0301524,50.0419013 C85.2031524,44.2879013 83.0701524,38.7559013 79.1781524,34.8629013 C75.3711524,31.0559013 69.8821524,28.9429013 64.0141524,29.0119013 C63.4631524,29.0209013 63.0211524,29.4749013 63.0301524,30.0269013 C63.0391524,30.5749013 63.4841524,31.0119013 64.0301524,31.0119013 L64.0301524,31.0119013 Z M64.0301524,37.0119013 C66.2641524,37.0119013 70.4701524,37.4679013 73.5221524,40.5199013 C76.5741524,43.5739013 77.0301524,47.7779013 77.0301524,50.0119013 C77.0301524,50.5639013 77.4771524,51.0119013 78.0301524,51.0119013 C78.5831524,51.0119013 79.0301524,50.5639013 79.0301524,50.0119013 C79.0301524,47.4689013 78.4981524,42.6689013 74.9361524,39.1059013 C71.3741524,35.5439013 66.5741524,35.0119013 64.0301524,35.0119013 C63.4771524,35.0119013 63.0301524,35.4599013 63.0301524,36.0119013 C63.0301524,36.5639013 63.4771524,37.0119013 64.0301524,37.0119013 L64.0301524,37.0119013 Z" id="phone-handle"></path>
        </g>
    </g>
</svg>