<?xml version="1.0" encoding="UTF-8"?>
<svg width="42px" height="60px" viewBox="0 0 42 60" version="1.1" xmlns="http://www.w3.org/2000/svg" xmlns:xlink="http://www.w3.org/1999/xlink">
    <!-- Generator: Sketch 48.1 (47250) - http://www.bohemiancoding.com/sketch -->
    <title>Resurs_1</title>
    <desc>Created with Sketch.</desc>
    <defs></defs>
    <g id="WhatWeDoElement_Gray-Copy" stroke="none" stroke-width="1" fill="none" fill-rule="evenodd" transform="translate(-35.000000, -25.000000)">
        <g id="Resurs_1-Copy" transform="translate(16.000000, 15.000000)">
            <g id="Resurs_3">
                <rect id="Rectangle-path" fill-opacity="0" fill="#FFFFFF" fill-rule="nonzero" x="0" y="0" width="80" height="80"></rect>
                <path d="M23.5333333,20 C25.6413983,15.4870399 30.3151435,12.7424576 35.2833333,13.1 C40.5568758,13.2096815 45.128955,16.7778026 46.5166667,21.8666667 C47.1857631,24.1917084 47.1857631,26.6582916 46.5166667,28.9833333 C46.3238915,29.5771823 46.6328158,30.2175424 47.2176006,30.4362787 C47.8023854,30.655015 48.4557269,30.3745864 48.7,29.8 C49.573058,27.0233016 49.6193851,24.0525715 48.8333333,21.25 C47.198019,15.1903202 41.7744382,10.9260299 35.5,10.7666667 C29.585089,10.3369927 24.019985,13.6070717 21.5166667,18.9833333 C19.8656902,22.1260642 19.4781441,25.780922 20.4333333,29.2 C20.5223638,29.6642002 20.8826792,30.0288143 21.345791,30.1233434 C21.8089028,30.2178724 22.2832894,30.0236354 22.5471207,29.6314603 C22.8109521,29.2392853 22.812089,28.7266749 22.55,28.3333333 C21.8329156,25.5297348 22.1833811,22.5596882 23.5333333,20 Z M55.5,40.6166667 C54.6717761,40.6129442 53.8585904,40.8378679 53.15,41.2666667 C53.0056644,40.2354365 52.5253062,39.2805783 51.7833333,38.55 C50.9190735,37.734208 49.7717214,37.2860236 48.5833333,37.3 C47.7457045,37.2958092 46.9204455,37.5021239 46.1833333,37.9 C45.9969409,35.4591277 43.9127317,33.6032241 41.4666667,33.7 C40.6852964,33.6995273 39.9146907,33.8821894 39.2166667,34.2333333 L39.2166667,25.3833333 C39.2433377,24.1102872 38.7065919,22.8904104 37.75,22.05 C36.8793981,21.3147489 35.7727694,20.9182563 34.6333333,20.9333333 C33.3996438,20.8788483 32.1971183,21.3300025 31.3037094,22.1825159 C30.4103005,23.0350293 29.9033375,24.2151124 29.9,25.45 L29.9,43.7833333 C29.1882492,43.4392372 28.4072196,43.2625079 27.6166667,43.2666667 C26.4447578,43.2557895 25.3062647,43.6569166 24.4,44.4 C23.3851819,45.2670834 22.8207507,46.5493239 22.8666667,47.8833333 C22.8666667,49.05 22.8666667,50.05 22.8666667,51.2166667 C22.8666667,53.0666667 22.8666667,55.4166667 22.8666667,59.65 C22.9031039,64.9616708 27.2049408,69.2560779 32.5166667,69.2833333 L49.35,69.2833333 C57.8833333,69.2833333 60.15,62.8166667 60.15,59 L60.15,45.7 C60.2515759,44.3983577 59.8090778,43.1128388 58.9278537,42.1494934 C58.0466295,41.186148 56.8055191,40.6311631 55.5,40.6166667 Z M57.8333333,58.95 C57.8899581,61.170281 56.9953604,63.3089944 55.3747582,64.827712 C53.7541561,66.3464295 51.5619372,67.1004695 49.35,66.9 L32.55,66.9 C28.5231587,66.8818304 25.2606861,63.6267894 25.2333333,59.6 C25.2333333,55.3666667 25.2333333,52.9333333 25.2333333,51.15 C25.2333333,49.95 25.2333333,48.95 25.2333333,47.8166667 C25.2099591,47.1817045 25.4730654,46.5698294 25.95,46.15 C26.4225304,45.770736 27.01076,45.5648556 27.6166667,45.5666667 C28.1870106,45.506191 28.7568366,45.6854484 29.189838,46.0615591 C29.6228394,46.4376698 29.8800706,46.9768052 29.9,47.55 L29.9,54.5333333 C29.9,54.9501432 30.1223654,55.3352914 30.4833333,55.5436964 C30.8443012,55.7521013 31.2890321,55.7521013 31.65,55.5436964 C32.010968,55.3352914 32.2333334,54.9501432 32.2333333,54.5333333 L32.2333333,25.3833333 C32.2404746,24.7680596 32.5030394,24.1834377 32.9581927,23.7693746 C33.413346,23.3553116 34.0201297,23.1490678 34.6333333,23.2 C35.236007,23.1633328 35.8305761,23.3535949 36.3,23.7333333 C36.7644874,24.158341 37.0099109,24.7718996 36.9666667,25.4 L36.9666667,44.3833333 C36.9666666,44.8001432 37.189032,45.1852914 37.55,45.3936964 C37.9109679,45.6021013 38.3556988,45.6021013 38.7166667,45.3936964 C39.0776346,45.1852914 39.3,44.8001432 39.3,44.3833333 L39.3,38.1833333 C39.2790401,37.5891833 39.5129191,37.0143828 39.9427512,36.6036543 C40.3725833,36.1929259 40.9574157,35.9854022 41.55,36.0333333 C42.1660709,35.9821997 42.7755074,36.1906533 43.2312082,36.608379 C43.686909,37.0261047 43.9474704,37.6151492 43.95,38.2333333 L43.95,44.4 C43.95,45.0443322 44.4723345,45.5666667 45.1166667,45.5666667 C45.7609989,45.5666667 46.2833333,45.0443322 46.2833333,44.4 L46.2833333,41.8666667 C46.3266506,40.9488585 46.8937049,40.1376892 47.7407987,39.7817675 C48.5878925,39.4258457 49.5641445,39.588567 50.25,40.2 C50.7652612,40.7605332 51.0300392,41.5067258 50.9833333,42.2666667 L50.9833333,44.0833333 C50.9731412,44.1719301 50.9731412,44.2614033 50.9833333,44.35 L50.9833333,47.45 C50.9583308,47.5877637 50.9583308,47.728903 50.9833333,47.8666667 C51.0342402,47.995253 51.1076041,48.113764 51.2,48.2166667 C51.3393181,48.371978 51.5177368,48.4870869 51.7166667,48.55 L52.0333333,48.55 L52.3666667,48.55 C52.8606205,48.4027318 53.1993958,47.9487729 53.2,47.4333333 L53.2,45.6333333 C53.2,43.65 54.45,42.9333333 55.5,42.9333333 C56.1885151,42.9504699 56.8370086,43.2605614 57.2826003,43.785723 C57.728192,44.3108846 57.9285436,45.0012178 57.8333333,45.6833333 L57.8333333,58.95 Z M42.0166667,28.5666667 C42.6195539,28.7915081 43.2906568,28.4857835 43.5166667,27.8833333 C44.0787573,26.1149596 44.1135064,24.221137 43.6166667,22.4333333 C42.5692864,18.5898912 39.1318907,15.8832805 35.15,15.7666667 C31.4002667,15.5775512 27.8964954,17.6339703 26.2333333,21 C25.2990088,23.0094893 25.0586465,25.2724119 25.55,27.4333333 C25.728923,28.0440372 26.3642441,28.3986963 26.977985,28.2304858 C27.5917259,28.0622753 27.9574465,27.4332567 27.8,26.8166667 C27.4697846,25.1863018 27.6682973,23.4931055 28.3666667,21.9833333 C29.6303637,19.4890927 32.2403149,17.9687961 35.0333333,18.1 C38.0264766,18.1788753 40.6138708,20.2108602 41.4,23.1 C41.7738188,24.4127963 41.7738188,25.8038704 41.4,27.1166667 C41.1988154,27.6867713 41.4664678,28.3161159 42.0166667,28.5666667 Z" id="Shape" fill="#EB3449" fill-rule="nonzero"></path>
            </g>
        </g>
    </g>
</svg>