<?xml version="1.0" encoding="UTF-8"?>
<svg width="136px" height="78px" viewBox="0 0 136 78" version="1.1" xmlns="http://www.w3.org/2000/svg" xmlns:xlink="http://www.w3.org/1999/xlink">
    <!-- Generator: Sketch 48.1 (47250) - http://www.bohemiancoding.com/sketch -->
    <title>Group</title>
    <desc>Created with Sketch.</desc>
    <defs></defs>
    <g id="Logo_contur" stroke="none" stroke-width="1" fill="none" fill-rule="evenodd" transform="translate(-8.000000, -6.000000)">
        <g id="Group" transform="translate(8.000000, 6.000000)">
            <path d="M25,39 L25,66 L32,66 L32,71 L81,71 L81,23 L73.3474021,23 L53.3781623,6.46911214 L30,25.5018894 L30,11.3273069 L25,15.3660327 C25,21.5326351 25,26.1500549 25,29.2182922 L13.5,39 L25,39 Z M35,15.0078125 L53.4034975,0 L81.1999969,22.9989014 L81,23 L81,71 L32,71 L20,71 L20.0331404,44 L0,44 L20,26.958252 L20,12.9638567 L35,0.879272461 L35,15.0078125 Z" id="HousePath" fill="#1F9053" fill-rule="nonzero"></path>
            <path d="M82.4752966,56.2203275 C78.5053702,56.2203275 75.2875128,59.0971932 75.2875128,62.6479557 C75.2875128,66.1973705 78.5053702,69.0755839 82.4752966,69.0755839 C86.4445491,69.0755839 89.6637544,66.1973705 89.6637544,62.6479557 C89.6637544,59.0971932 86.4445491,56.2203275 82.4752966,56.2203275 Z M135.786603,47.9017448 L135.786603,27.0001599 L130.312539,27.0001599 L130.312539,43.7458229 L119.660925,43.7458229 L119.660925,27.0001599 L114.187535,27.0001599 L114.187535,43.7458229 L103.536595,43.7458229 L103.536595,27.0001599 L98.061857,27.0001599 L98.061857,47.9017448 L135.786603,47.9017448 Z M69.8673603,47.9017448 L72.8352021,42.6311975 L86.3886156,42.6311975 L89.3234364,47.9017448 L95.7530863,47.9017448 L83.7172885,27.0001599 L75.6049182,27.0001599 L63.4693836,47.9017448 L69.8673603,47.9017448 Z M75.0435621,38.6855314 L79.5620405,30.9148267 L79.8255342,30.9148267 L84.1789079,38.6855314 L75.0435621,38.6855314 Z M41.4740642,30.9451521 L52.6203181,30.9451521 C53.379126,30.9505433 53.9499166,31.1412561 54.3299945,31.5071821 C54.7087245,31.8784992 54.8960678,32.3805524 54.8960678,33.02345 C54.8960678,33.4904605 54.8131785,33.9069288 54.6426826,34.2735287 C54.4782518,34.6394547 54.2248665,34.9258608 53.895331,35.1367905 C53.5604042,35.3531114 53.1479794,35.4582393 52.6526652,35.4629566 L41.4740642,35.4629566 L41.4740642,30.9451521 Z M36,47.9018529 L53.6102726,47.9017448 C55.3347747,47.9071359 56.7641099,47.711032 57.8969305,47.3046722 C59.0290772,46.9030296 59.8701005,46.2500236 60.4301088,45.3470018 C60.9860737,44.4433061 61.2596758,43.2491609 61.2596758,41.7578271 C61.2596758,40.9444336 61.1713953,40.2570588 60.9961821,39.7098546 C60.8256862,39.1572592 60.57904,38.701031 60.2495044,38.3445396 C59.9240123,37.9934393 59.533826,37.6969247 59.0782717,37.4711692 C58.6166524,37.2447399 58.1051646,37.0445925 57.534374,36.8788139 C57.9959933,36.7480779 58.4016793,36.5876905 58.7541273,36.401021 C59.1112926,36.2109821 59.4084812,35.9495101 59.6443451,35.6186268 C59.8856001,35.2924607 60.0675523,34.8557755 60.1888537,34.3132886 C60.3094813,33.7660843 60.370132,33.0787095 60.370132,32.2403819 C60.3640669,30.9606517 60.0614872,29.9356546 59.4576756,29.1680861 C58.8471251,28.4005176 57.9629724,27.8432049 56.7917397,27.5015392 C55.6211808,27.1605474 54.1871283,26.9940948 52.4889082,27.0001599 L36,27 L36,47.9018529 Z M41.4740642,39.1673676 L52.6526652,39.1673676 C53.3562135,39.1673676 53.9168957,39.2125187 54.3407768,39.3082121 C54.757919,39.4032315 55.0773461,39.5494671 55.2862541,39.7448972 C55.4951621,39.9362839 55.6319632,40.1822563 55.6980051,40.4774231 C55.764047,40.7692204 55.7916767,41.1156034 55.7862856,41.517246 C55.7916767,41.9734741 55.7586558,42.3602909 55.6811577,42.6709574 C55.6050073,42.987015 55.4513588,43.2383785 55.2195383,43.4243741 C54.9944568,43.6150869 54.65953,43.7505401 54.2147581,43.836125 C53.7693123,43.9163188 53.1863915,43.9560787 52.4552134,43.9560787 L41.4740642,43.9560787 L41.4740642,39.1673676 Z M99.191982,52.0981005 L109.244501,52.0981005 L116.727452,68.8444373 L117.053618,68.8444373 L124.536569,52.0981005 L134.589088,52.0981005 L134.589088,73.0010331 L129.188479,73.0010331 L129.188479,56.2546963 L128.4728,56.2546963 L120.729052,73.0010331 L113.052019,73.0010331 L105.308944,56.2546963 L104.592591,56.2546963 L104.592591,73.0010331 L99.191982,73.0010331 L99.191982,52.0981005 Z M38.3229225,68.8444373 L36.7938505,68.8444373 L36.7938505,78 L41.7389056,78 L41.7389056,73.0010331 L61.1943078,73.0010331 L61.1943078,78 L66.1056681,78 L66.1056681,68.8444373 L63.6014674,68.8444373 L63.6014674,52.0981005 L41.0232272,52.0981005 L41.0232272,62.097382 C41.0286183,63.0866626 40.9416856,63.9795759 40.763103,64.7781437 C40.5892376,65.5760376 40.3021575,66.3038462 39.9059062,66.9669607 C39.5103287,67.6294013 38.979298,68.2567993 38.3229225,68.8444373 Z M58.200858,68.8444373 L44.3745162,68.8444373 C44.8078319,68.2770162 45.1609538,67.6947693 45.4318604,67.1078051 C45.7081581,66.5154498 45.9089794,65.8920952 46.0390414,65.239763 C46.1630385,64.5874309 46.2284065,63.8798392 46.2284065,63.1210313 L46.2284065,56.2546963 L58.200858,56.2546963 L58.200858,68.8444373 Z M82.4752966,51.6674804 C75.6925248,51.6674804 70.1955481,56.5835579 70.1955481,62.6479557 C70.1955481,68.7123535 75.6925248,73.629105 82.4752966,73.629105 C89.2567207,73.629105 94.7543712,68.7123535 94.7543712,62.6479557 C94.7543712,56.5835579 89.2567207,51.6674804 82.4752966,51.6674804 Z" id="Fill-1" fill="#C60A10"></path>
        </g>
    </g>
</svg>