<svg xmlns="http://www.w3.org/2000/svg" xmlns:xlink="http://www.w3.org/1999/xlink" width="4.75rem" height="4.5rem" viewBox="0 0 76 72"><defs><path id="pkw1a" d="M1436.5 490h-9v-12h9zm6 12h-69v-9h69zm-6 12h-9v-9h9zm-24 0h-9v-9h9zm-24 0h-9v-9h9zm-9-36h9v12h-9zm12 12v-12h9v12zm12 0v-12h9v12zm12 0v-12h9v12zm-42-24h69v9H1402h-28.5zm6-12l4.5-4.5 4.5 4.5v9h-9zm24 0l4.5-4.5 4.5 4.5v9h-9zm24 0l4.5-4.5 4.5 4.5v9h-9zm16.5 24c.83 0 1.5-.67 1.5-1.5v-12c0-.83-.67-1.5-1.5-1.5h-4.5v-10.5l-7.5-7.5-7.5 7.5V463h-9v-10.5l-7.5-7.5-7.5 7.5V463h-9v-10.5l-7.5-7.5-7.5 7.5V463h-4.5c-.83 0-1.5.67-1.5 1.5v12c0 .83.67 1.5 1.5 1.5h4.5v12h-4.5c-.83 0-1.5.67-1.5 1.5v12c0 .83.67 1.5 1.5 1.5h4.5v10.5c0 .83.67 1.5 1.5 1.5h12c.83 0 1.5-.67 1.5-1.5V505h9v10.5c0 .83.67 1.5 1.5 1.5h12c.83 0 1.5-.67 1.5-1.5V505h9v10.5c0 .83.67 1.5 1.5 1.5h12c.83 0 1.5-.67 1.5-1.5V505h4.5c.83 0 1.5-.67 1.5-1.5v-12c0-.83-.67-1.5-1.5-1.5h-4.5v-12z"/></defs><g><g transform="translate(-1370 -445)"><use fill-opacity=".92" xlink:href="#pkw1a"/></g></g></svg>