<svg xmlns="http://www.w3.org/2000/svg" xmlns:xlink="http://www.w3.org/1999/xlink" width="73" height="72" viewBox="0 0 73 72"><defs><path id="6rq0a" d="M476 443v-72h73v72z"/><path id="6rq0c" d="M479 408h66c1.66 0 3-.9 3-2s-1.34-2-3-2h-66c-1.66 0-3 .9-3 2s1.34 2 3 2z"/><path id="6rq0d" d="M497 373.77v30.46c0 1.53.9 2.77 2 2.77s2-1.24 2-2.77v-30.46c0-1.53-.9-2.77-2-2.77s-2 1.24-2 2.77z"/><path id="6rq0e" d="M522 407v33c0 1.66.9 3 2 3s2-1.34 2-3v-33c0-1.66-.9-3-2-3s-2 1.34-2 3z"/><clipPath id="6rq0b"><use fill="#fff" xlink:href="#6rq0a"/></clipPath></defs><g><g transform="translate(-476 -371)"><g><use fill="#fff" fill-opacity="0" stroke="#fff" stroke-miterlimit="50" stroke-width="8" clip-path="url(&quot;#6rq0b&quot;)" xlink:href="#6rq0a"/></g><g><use fill="#fff" xlink:href="#6rq0c"/></g><g><use fill="#fff" xlink:href="#6rq0d"/></g><g><use fill="#fff" xlink:href="#6rq0e"/></g></g></g></svg>