<svg xmlns="http://www.w3.org/2000/svg" xmlns:xlink="http://www.w3.org/1999/xlink" width="24" height="24" viewBox="0 0 24 24"><defs><path id="7tzea" d="M368 2160h-17v-11h17v-3h-6v-6h-14v24h20z"/><path id="7tzeb" d="M363 2140v5h5z"/><path id="7tzec" d="M367 2157h-1v-5h4v1h-3v1h3v1h-3zm-2-1h-1v1h-3v-5h3v1h1zm-5-1h-3v2h-1v-5h4zm-5 2h-1v-1h1zm17 2v-9h-20v9z"/><path id="7tzed" d="M357 2154v-1h2v1z"/><path id="7tzee" d="M362 2156v-3h2v3z"/></defs><g><g transform="translate(-348 -2140)"><g><g><use fill="#e42339" xlink:href="#7tzea"/></g><g><use fill="#e42339" xlink:href="#7tzeb"/></g><g><use fill="#e42339" xlink:href="#7tzec"/></g><g><use fill="#e42339" xlink:href="#7tzed"/></g><g><use fill="#e42339" xlink:href="#7tzee"/></g></g></g></g></svg>