<svg xmlns="http://www.w3.org/2000/svg" xmlns:xlink="http://www.w3.org/1999/xlink" width="32" height="36" viewBox="0 0 32 36"><defs><path id="ok6pa" d="M682.76 771.44l-4.56-4.56 2.22-2.22 4.58 4.5zM672.1 782.1l-4.56-4.56 9.73-9.73 4.56 4.56zm-6.27 1.9l1.17-5.14 3.83 3.83zm20.6-15.3l-5.56-5.43a.66.66 0 0 0-.93 0l-13.8 13.81-.07.11a.63.63 0 0 0-.05.12l-1.72 7.46a.66.66 0 0 0 .64.81h.17l7.15-1.88.12-.06.1-.07 13.96-13.94a.66.66 0 0 0 0-.94z"/><path id="ok6pb" d="M667.57 793.5H656.3a.66.66 0 0 1-.66-.66v-33.68c0-.36.3-.66.66-.66h11.27c.36 0 .66.3.66.66v17.2a.66.66 0 1 1-1.32 0v-16.54H657v32.36h9.95v-7.65a.66.66 0 1 1 1.32 0v8.31a.66.66 0 0 1-.7.66z"/><path id="ok6pc" d="M661.89 766.72h-5.59a.66.66 0 1 1 0-1.32h5.59a.66.66 0 1 1 0 1.32z"/><path id="ok6pd" d="M661.89 773.33h-5.59a.66.66 0 1 1 0-1.32h5.59a.66.66 0 1 1 0 1.32z"/><path id="ok6pe" d="M661.89 779.94h-5.59a.66.66 0 1 1 0-1.32h5.59a.66.66 0 1 1 0 1.32z"/><path id="ok6pf" d="M661.89 786.55h-5.59a.66.66 0 1 1 0-1.32h5.59a.66.66 0 1 1 0 1.32z"/></defs><g><g transform="translate(-655 -758)"><use fill="#eb3449" xlink:href="#ok6pa"/></g><g transform="translate(-655 -758)"><use fill="#eb3449" xlink:href="#ok6pb"/></g><g transform="translate(-655 -758)"><use fill="#eb3449" xlink:href="#ok6pc"/></g><g transform="translate(-655 -758)"><use fill="#eb3449" xlink:href="#ok6pd"/></g><g transform="translate(-655 -758)"><use fill="#eb3449" xlink:href="#ok6pe"/></g><g transform="translate(-655 -758)"><use fill="#eb3449" xlink:href="#ok6pf"/></g></g></svg>