<svg xmlns="http://www.w3.org/2000/svg" xmlns:xlink="http://www.w3.org/1999/xlink" width="28" height="36" viewBox="0 0 28 36"><defs><path id="3v2za" d="M1331.93 767.12zm.54-.13a.72.72 0 0 0 .28-.48 7.91 7.91 0 0 1 4.3-5.73 4.6 4.6 0 0 0 .96 2.93 3.85 3.85 0 0 0 3.09 1.28c1.14.06 2.25-.4 3-1.27.63-.86.94-1.92.88-3a8.16 8.16 0 0 1 4.33 5.78.73.73 0 0 0 .85.6c.17.14.25.35.22.57 0 .53-.58.7-1 .75-11 1.14-16.49-.17-16.55-.18h-.03c-.34-.06-.92-.21-1-.65a.59.59 0 0 1 .13-.47c.19.03.38-.02.54-.13zm8.53-7c.85 0 1.7.08 2.53.28.14.88-.05 1.8-.53 2.55-.49.53-1.2.8-1.92.73-.74.07-1.48-.2-2-.75a3.6 3.6 0 0 1-.55-2.55c.81-.18 1.64-.27 2.47-.25zm.08 17.8c-5.17 0-6.55-5.57-6.89-7.82 4.59.52 9.22.53 13.81.03-.3 2.18-1.67 7.79-6.92 7.79zm-8.4-8.11c.4 3.59 2.56 9.53 8.4 9.53 5.85 0 8.01-5.83 8.45-9.35a2.42 2.42 0 0 0 2.17-1.42 2.2 2.2 0 0 0-.3-2.2c-.2-.24-.45-.42-.75-.52a9.41 9.41 0 0 0-9.5-7.22h-.14a9.41 9.41 0 0 0-9.56 7.25c-.22.08-.42.21-.58.39a2 2 0 0 0-.42 2 2.41 2.41 0 0 0 2.08 1.54zM1353.1 792h-2.65v-4.54c0-.4-.32-.73-.73-.73h-1.7v-7.42c5.21 2.6 5.13 8.5 5.08 12.47v.22zm-4.09 0h-16v-3.82h16zm-17.38-4.54V792h-2.7v-.27c-.05-3.84-.13-9.51 4.61-12.22v7.18h-1.2a.73.73 0 0 0-.74.77zm3.38-7.83c2 1.43 6.58 3.9 11.6.38v6.73H1335zm12.9-1.96a.75.75 0 0 0-1 .2c-6.08 5.57-11.66.13-11.9-.1a.73.73 0 0 0-.78-.15c-6.9 2.76-6.8 10.19-6.75 14.18v1c0 .4.33.71.72.72h25.61c.4 0 .72-.33.72-.72v-1c.07-3.97.17-11.34-6.62-14.13z"/></defs><g><g transform="translate(-1327 -758)"><use fill="#eb3449" xlink:href="#3v2za"/></g></g></svg>