<svg xmlns="http://www.w3.org/2000/svg" xmlns:xlink="http://www.w3.org/1999/xlink" width="32" height="34" viewBox="0 0 32 34"><defs><path id="m62aa" d="M1132.67 792.67c0 .37-.3.67-.67.67h-7.61a.67.67 0 0 1 0-1.34h7.61c.37 0 .67.3.67.67zm-12.4-.62l.11-.01h1.34a.67.67 0 0 1 .47 1.15.67.67 0 0 0-.48-1.14zm1.44 1.34h-8.91a.67.67 0 0 1 0-1.34h7.46a.67.67 0 0 0 .12 1.33h1.34a.67.67 0 0 1-.01.01zm7.74-6.39a2.77 2.77 0 1 0-5.54 0 2.77 2.77 0 0 0 5.54 0zm3.42-8.06v8c0 .37-.3.67-.67.67h-1.48a4.11 4.11 0 1 1 0-1.34h.81v-6.97l-2.11-1.5h-5.92a.67.67 0 0 1 0-1.34h2.22l1.49-.01h1.76a128.6 128.6 0 0 0-.58-7.23 1.11 1.11 0 0 0-.89-.8h-5.78v-1.34h5.95c.99.15 1.78.9 2 1.87.2 1.04.54 6.4.62 7.79l2.3 1.64c.18.13.28.34.28.56zm-11.37-10.52a.67.67 0 0 1 0-1.34h.22v-6.03c0-.37-.3-.67-.67-.67h-16.39c-1.91 0-3 1-3 2.74v21.18c0 .92 0 3.29 2.73 3.29h2.25a4.11 4.11 0 0 0 8.11 0l6.3-.01c.37 0 .67-.3.67-.67v-18.49zm-11.82 23.62a.67.67 0 0 1 0 1.34h-7.58a.67.67 0 0 1 0-1.34zm-1.73-5a2.77 2.77 0 0 1 5.53-.23 2.78 2.78 0 0 1-2.77 2.96 2.79 2.79 0 0 1-2.76-2.72zm-3.56-.79c-.84 0-1.39-.07-1.39-1.93v-3.87h17.38v5.8h-5.63a4.11 4.11 0 0 0-8.11 0h-2.25zm-1.39-23.13c0-.73.2-1.4 1.67-1.4h15.71v17.39H1103z"/></defs><g><g transform="translate(-1101 -760)"><use fill="#eb3449" xlink:href="#m62aa"/></g></g></svg>