<svg xmlns="http://www.w3.org/2000/svg" xmlns:xlink="http://www.w3.org/1999/xlink" width="28" height="36" viewBox="0 0 28 36"><defs><path id="lh7oa" d="M894.93 778c.89 2 2.06 3.81 2.6 3.89 1.34.18 3-1.33 4.13-2.33.36-.35.75-.67 1.16-.95-.29-.22-.65-.52-1.08-.87-1.13-1-2.35-1.89-3.66-2.64-.49.08-1.92 1.41-3.15 2.9zm-7.19 15.6a.63.63 0 0 1-.63-.27c-.27-.52-6.73-12.7-7.17-15.8-.34-2.43-.4-8.15-.44-11.58V764a2 2 0 1 1 4 0 .71.71 0 0 1-1.42 0 .71.71 0 0 0-.26-.66.62.62 0 0 0-.61 0 .68.68 0 0 0-.31.66v2c0 3.17.09 9.08.42 11.43.33 2.35 4.82 11.2 6.78 14.95h8.88a9.47 9.47 0 0 1 1.58-4.6c.37-.43 1.22-1.24 2.21-2.18 1.41-1.34 4-3.83 4.25-4.43.12-.45 0-.92-.33-1.25-.34-.25-.8-.28-1.17-.06-.35.24-.69.5-1 .79-1.3 1.18-3.28 3-5.27 2.68-1.74-.24-3.41-4-3.88-5.12a.7.7 0 0 1 .09-.7c1.26-1.63 3.6-4.28 5-3.66 1.44.8 2.78 1.76 4 2.86.55.45 1 .84 1.28 1 .22.03.44-.03.62-.17.15-.12.14-.2.13-.23-.18-1-4.57-5.79-6.23-6.26-2-.56-8.33 3.44-9.06 4.42-.26.43-.4.91-.4 1.41 0 .4-.31.72-.71.73a.73.73 0 0 1-.71-.73c0-.8.24-1.57.68-2.23.87-1.17 7.66-5.76 10.58-4.94 2.08.59 7 5.78 7.24 7.36.1.61-.15 1.22-.66 1.58a2.7 2.7 0 0 1 1.01 2.91c-.23.77-1.61 2.18-4.63 5-.92.88-1.79 1.7-2.11 2.08-.9 1-1.25 3.55-1.3 4.43a.63.63 0 0 1-.7.56l-9.92-.06z"/><path id="lh7ob" d="M883.09 774.92H883a.7.7 0 0 1-.59-.8c.5-3.1 2.15-13.29 2.5-14.1.29-.7.95-1.15 1.69-1.19a2 2 0 0 1 1.88 1.08c.22.56.33 1.15.32 1.74a.71.71 0 1 1-1.42 0c0-.37-.05-.74-.15-1.1a.61.61 0 0 0-.58-.34c-.2 0-.4.13-.47.32-.25.7-1.61 8.81-2.41 13.76a.71.71 0 0 1-.68.63z"/><path id="lh7oc" d="M884.3 777.53a.71.71 0 0 1-.25 0 .7.7 0 0 1-.4-.9c6.7-17 7-17.27 7.05-17.38a2.38 2.38 0 0 1 3.08-.1 3.45 3.45 0 0 1 1.08 3.53c-.24 1.31-2.7 7.4-3 8.08a.71.71 0 0 1-1.31-.53c1.08-2.65 2.74-6.9 2.9-7.8.24-.76.03-1.6-.53-2.16-.32-.25-.76-.3-1.12-.12a813.75 813.75 0 0 0-6.84 17 .71.71 0 0 1-.65.38z"/></defs><g><g transform="translate(-879 -758)"><use fill="#eb3449" xlink:href="#lh7oa"/></g><g transform="translate(-879 -758)"><use fill="#eb3449" xlink:href="#lh7ob"/></g><g transform="translate(-879 -758)"><use fill="#eb3449" xlink:href="#lh7oc"/></g></g></svg>