<?xml version="1.0" encoding="UTF-8"?>
<svg width="75px" height="59px" viewBox="0 0 75 59" version="1.1" xmlns="http://www.w3.org/2000/svg" xmlns:xlink="http://www.w3.org/1999/xlink">
    <!-- Generator: Sketch 49.3 (51167) - http://www.bohemiancoding.com/sketch -->
    <title>noun_pig</title>
    <desc>Created with Sketch.</desc>
    <defs></defs>
    <g id="Page-1" stroke="none" stroke-width="1" fill="none" fill-rule="evenodd">
        <g id="Desktop/07_About" transform="translate(-475.000000, -1061.000000)" fill="#EB3449">
            <g id="OpisanieBlock" transform="translate(329.000000, 953.000000)">
                <g id="Content">
                    <g id="Group-4" transform="translate(0.000000, 97.000000)">
                        <g id="Group-5">
                            <g id="noun_pig" transform="translate(143.000000, 0.000000)">
                                <g id="pig" transform="translate(3.000000, 11.000000)">
                                    <path d="M71.11,6.86611279 C70.4003141,6.43809214 69.4780207,6.66642693 69.05,7.37611281 C68.6219794,8.0857987 68.8503141,9.0080921 69.56,9.43611279 C70.61,10.0761128 71.75,13.0061128 71.17,15.7561128 C70.79,17.5361128 69.59,19.7561128 66.09,20.5161128 C62.67,12.8861128 54.78,6.88611279 44.71,4.89611279 C43.2887212,2.07948952 40.4839151,0.224473401 37.3357138,0.0189772337 C34.1875125,-0.186518933 31.1653642,1.28814768 29.39,3.89611279 L17.66,0.766112791 C17.1912058,0.641951157 16.6913079,0.752094497 16.3181029,1.06177525 C15.9448979,1.37145601 15.744438,1.84246054 15.78,2.32611279 L16.4,10.9861128 C16.4075919,11.1119102 16.431113,11.2362361 16.47,11.3561128 C12.8468488,14.2723763 10.1762616,18.2033972 8.8,22.6461128 L5.88,22.6461128 C0.88,22.6461128 0,24.8461128 0,29.1861128 L0,32.3161128 C0,37.1661128 1.38,38.6461128 5.92,38.6461128 L10.55,38.6461128 C12.5169784,42.2067343 15.3296073,45.2288508 18.74,47.4461128 L17.4,52.1161128 C17.0958903,53.0156225 17.153262,53.9981124 17.56,54.8561128 C18.0374727,55.7546419 18.8794466,56.4034356 19.87,56.6361128 C21.52,57.1061128 24.19,57.6361128 24.63,57.7761128 C25.5386345,58.0336643 26.5102391,57.9482485 27.36,57.5361128 C28.2742755,57.0339168 28.9348962,56.1700282 29.18,55.1561128 C29.47,54.1561128 29.77,53.1561128 30,52.3961128 C32.3648911,52.9521751 34.7812508,53.2605039 37.21,53.3161128 C40.2332773,53.4120777 43.2566988,53.1298917 46.21,52.4761128 L48.3,56.3561128 C48.6945622,57.222911 49.4122901,57.901164 50.3,58.2461128 C50.6581586,58.3799908 51.0376412,58.4477556 51.42,58.4461128 C52.0240127,58.4254426 52.6154894,58.2681714 53.15,57.9861128 L55.29,56.9261128 L55.71,56.7261128 L56.23,56.4961128 C57.6292942,56.05841 58.7775607,55.0482262 59.39,53.7161128 C59.87,52.3861128 59.62,50.7161128 58.62,48.7161128 L57.91,47.3061128 C64.1,42.8461128 67.73,36.4861128 67.91,29.6561128 C67.9709974,27.5306529 67.7011063,25.4086342 67.11,23.3661128 C70.6322953,22.6408524 73.3847397,19.8884081 74.11,16.3661128 C74.89,12.6761128 73.52,8.32611279 71.11,6.86611279 Z M36.75,2.98611279 C39.1256942,2.96842069 41.2810426,4.37501024 42.2213747,6.5567553 C43.1617068,8.73850036 42.7042044,11.2712286 41.06,12.9861128 L40.97,13.0861128 C38.199907,12.3617301 35.290093,12.3617301 32.52,13.0861128 C30.8254967,11.3867888 30.3245217,8.83260171 31.2515665,6.61909062 C32.1786112,4.40557954 34.3502487,2.97071433 36.75,2.98611279 Z M26,6.08611279 C23.6256605,6.89300647 21.3562407,7.98071655 19.24,9.32611279 L18.88,4.20611279 L26,6.08611279 Z M55.1,45.5461128 C54.4290368,45.9744881 54.209562,46.8523872 54.6,47.5461128 C54.6,47.6361128 54.99,48.2861128 55.87,50.0761128 C56.75,51.8661128 56.59,52.4761128 56.51,52.7161128 C56.35,53.1661128 55.64,53.4761128 54.96,53.7661128 L54.34,54.0461128 L53.93,54.2461128 L51.8,55.2961128 C51.6529395,55.3949853 51.4765951,55.4408349 51.3,55.4261128 C51.1795417,55.3553909 51.0822564,55.2511565 51.02,55.1261128 L50.95,54.9861128 L48.34,50.1561128 C47.8628316,49.5515332 47.1042425,49.2405117 46.34,49.3361128 C43.3970475,50.0592287 40.3688591,50.3755061 37.34,50.2761128 C34.652611,50.1846128 31.9878267,49.7511233 29.41,48.9861128 L29.41,48.8761128 C29.28,48.8761128 29.14,48.6061128 29.01,48.6061128 C28.76,48.6061128 28.52,48.8961128 28.31,49.0061128 L28.31,49.2161128 C28.1261637,49.3180924 27.9659884,49.4578198 27.84,49.6261128 C27.7382689,49.7619219 27.6604836,49.9141105 27.61,50.0761128 C27.61,50.1861128 26.96,52.1861128 26.36,54.2561128 C26.27,54.5761128 26.15,55.0161128 25.53,54.8361128 L25.36,54.8361128 C25.36,54.8361128 22.36,54.2161128 20.74,53.7361128 C20.5673449,53.7087967 20.4088697,53.6242766 20.29,53.4961128 C20.250833,53.3622523 20.250833,53.2199733 20.29,53.0861128 L20.29,52.9661128 L21.93,47.2061128 C22.1243246,46.5216405 21.8110416,45.7948238 21.18,45.4661128 L21,45.3861128 C17.4749778,43.2604347 14.6221098,40.1822491 12.77,36.5061128 C12.4826817,35.9066464 11.837121,35.5655954 11.18,35.6661128 L10.95,35.6661128 L5.92,35.6661128 C3.17,35.6661128 3,35.6661128 3,32.3361128 L3,29.1861128 C3,25.6461128 3.33,25.6461128 5.88,25.6461128 L10,25.6461128 C10.83,25.6461128 11,24.9761128 11,24.1461128 C13,17.0561128 19.22,11.2661128 27.59,8.65611279 C27.59,8.73611279 27.84,8.82611279 27.84,8.90611279 C27.8338402,10.7722674 28.4184158,12.5925028 29.51,14.1061128 C27.9538134,14.7922513 26.5080659,15.7055323 25.22,16.8161128 C24.6906747,17.3973543 24.6999066,18.2886628 25.2411577,18.8588156 C25.7824087,19.4289685 26.6720328,19.484513 27.28,18.9861128 C27.36,18.9161128 35.13,11.7061128 45.28,18.2461128 C45.9758788,18.6962249 46.9048879,18.4969916 47.355,17.8011128 C47.8051121,17.105234 47.6058788,16.1762249 46.91,15.7261128 C45.9811529,15.1211316 45.0084517,14.5863131 44,14.1261128 C45.1002409,12.6081377 45.6918223,10.7808861 45.69,8.90611279 C45.69,8.65944612 45.69,8.41611279 45.69,8.17611279 C54.44,10.3361128 61.15,15.8461128 63.77,22.6461128 C63.7919964,22.714554 63.8187276,22.781382 63.85,22.8461128 C64.6561999,24.992122 65.0366185,27.2746338 64.97,29.5661128 C64.74,35.7861128 61.17,41.6161128 55.14,45.5461128 L55.1,45.5461128 Z M18.36,29.5661128 C19.9063973,29.5661128 21.16,28.3125101 21.16,26.7661128 C21.16,25.2197155 19.9063973,23.9661128 18.36,23.9661128 C16.8136027,23.9661128 15.56,25.2197155 15.56,26.7661128 C15.56,28.3125101 16.8136027,29.5661128 18.36,29.5661128 Z" id="Shape" fill-rule="nonzero" transform="translate(37.164686, 29.223071) scale(-1, 1) translate(-37.164686, -29.223071) "></path>
                                </g>
                            </g>
                        </g>
                    </g>
                </g>
            </g>
        </g>
    </g>
</svg>