<?xml version="1.0" encoding="UTF-8"?>
<svg width="52px" height="59px" viewBox="0 0 52 59" version="1.1" xmlns="http://www.w3.org/2000/svg" xmlns:xlink="http://www.w3.org/1999/xlink">
    <!-- Generator: Sketch 49.3 (51167) - http://www.bohemiancoding.com/sketch -->
    <title>noun_SaveMoney</title>
    <desc>Created with Sketch.</desc>
    <defs></defs>
    <g id="Page-1" stroke="none" stroke-width="1" fill="none" fill-rule="evenodd">
        <g id="Desktop/07_About" transform="translate(-1383.000000, -1061.000000)" fill="#EB3449">
            <g id="OpisanieBlock" transform="translate(329.000000, 953.000000)">
                <g id="Content">
                    <g id="Group-4" transform="translate(0.000000, 97.000000)">
                        <g id="Group-6" transform="translate(897.000000, 0.000000)">
                            <g id="noun_SaveMoney" transform="translate(143.000000, 0.000000)">
                                <g id="timer" transform="translate(14.000000, 11.000000)">
                                    <path d="M25.9718563,12.8700311 C15.1802123,12.8700311 6.43185628,21.6183871 6.43185628,32.4100311 C6.43185628,43.2016751 15.1802123,51.9500311 25.9718563,51.9500311 L26.1818563,51.9500311 L26.4418563,51.9500311 C37.2335003,51.8202442 45.8766432,42.9666751 45.7468563,32.1750311 C45.6170694,21.3833871 36.7635003,12.7402442 25.9718563,12.8700311 Z M27.6918563,46.4000311 C27.6037505,45.638281 26.9586847,45.0635246 26.1918563,45.0635246 C25.4250279,45.0635246 24.7799621,45.638281 24.6918563,46.4000311 L24.6918563,48.8500311 C16.8443295,48.2081616 10.5387831,42.1201921 9.62185628,34.3000311 L12.6218563,34.3000311 C13.3836063,34.2119253 13.9583628,33.5668595 13.9583628,32.8000311 C13.9583628,32.0332027 13.3836063,31.3881369 12.6218563,31.3000311 L9.62185628,31.3000311 C10.1754333,23.1627367 16.5847556,16.6472295 24.7118563,15.9600311 L24.7118563,19.1700311 C24.7999621,19.9317812 25.4450279,20.5065376 26.2118563,20.5065376 C26.9786847,20.5065376 27.6237505,19.9317812 27.7118563,19.1700311 L27.7118563,16.0100311 C35.6872875,16.8436998 41.9140696,23.2812734 42.4818563,31.2800311 L39.8418563,31.2800311 C39.2646008,31.2132644 38.7002498,31.483675 38.3906001,31.9754054 C38.0809503,32.4671358 38.0809503,33.0929264 38.3906001,33.5846568 C38.7002498,34.0763872 39.2646008,34.3467978 39.8418563,34.2800311 L42.4218563,34.2800311 C41.5343597,41.9667871 35.4362023,48.0109418 27.7418563,48.8300311 L27.6918563,46.4000311 Z M27.6918563,3.01003111 L31.6918563,3.01003111 C32.2691118,3.07679783 32.8334627,2.80638717 33.1431125,2.3146568 C33.4527622,1.82292643 33.4527622,1.19713579 33.1431125,0.705405415 C32.8334627,0.213675044 32.2691118,-0.0567356191 31.6918563,0.0100311064 L20.6818563,0.0100311064 C20.1046008,-0.0567356191 19.5402498,0.213675044 19.2306001,0.705405415 C18.9209503,1.19713579 18.9209503,1.82292643 19.2306001,2.3146568 C19.5402498,2.80638717 20.1046008,3.07679783 20.6818563,3.01003111 L24.6818563,3.01003111 L24.6818563,6.39003111 C20.0160456,6.62075603 15.4996833,8.1100844 11.6118563,10.7000311 L9.54185628,8.61003111 C8.84787272,7.90177067 7.94885109,7.42952195 6.97185628,7.26003111 C5.77233145,7.07790069 4.5593561,7.49217842 3.72185628,8.37003111 C3.36185628,8.73003111 3.12185628,8.98003111 2.86185628,9.27003111 C2.60185628,9.56003111 2.12185628,10.0100311 1.27185628,10.9000311 C0.517131023,11.679088 0.111151269,12.7312478 0.146973456,13.8153403 C0.182795643,14.8994328 0.657348009,15.9224968 1.46185628,16.6500311 C2.05185628,17.2400311 3.10185628,18.2500311 3.76185628,18.8900311 C-2.27634785,28.8587129 -0.943089292,41.6276486 7.0241671,50.1339611 C14.9914235,58.6402735 27.6458818,60.8054487 37.9879856,55.4318639 C48.3300895,50.0582791 53.83275,38.4589676 51.4522823,27.0498529 C49.0718146,15.6407381 39.3898851,7.20963268 27.7618563,6.42003111 L27.6918563,3.01003111 Z M3.60185628,14.5100311 C3.60185628,14.5100311 2.78185628,13.6700311 3.41185628,13.0400311 C4.30185628,12.1500311 4.72185628,11.7000311 5.07185628,11.3300311 C5.42185628,10.9600311 5.53185628,10.8400311 5.86185628,10.5100311 C6.01705297,10.3082544 6.2707391,10.2083174 6.52185628,10.2500311 C6.8592122,10.3291591 7.16548372,10.5066573 7.40185628,10.7600311 L9.19185628,12.5500311 C7.83889906,13.6990431 6.60592718,14.982272 5.51185628,16.3800311 C4.88185628,15.7600311 4.08185628,15.0100311 3.60185628,14.5100311 Z M25.9718563,55.4300311 C13.269307,55.4300311 2.97185628,45.1325804 2.97185628,32.4300311 C2.97185628,19.7274819 13.269307,9.43003111 25.9718563,9.43003111 C38.6744055,9.43003111 48.9718563,19.7274819 48.9718563,32.4300311 C48.9718563,38.5300104 46.5486489,44.3801504 42.2353122,48.6934871 C37.9219755,53.0068238 32.0718355,55.4300311 25.9718563,55.4300311 Z M30.7118563,31.2800311 L27.7118563,31.2800311 L27.7118563,25.2200311 C27.6237505,24.458281 26.9786847,23.8835246 26.2118563,23.8835246 C25.4450279,23.8835246 24.7999621,24.458281 24.7118563,25.2200311 L24.7118563,32.7800311 C24.7118563,33.6139811 25.3879063,34.2900311 26.2218563,34.2900311 L30.7618563,34.2900311 C31.3391118,34.3567978 31.9034627,34.0863872 32.2131125,33.5946568 C32.5227622,33.1029264 32.5227622,32.4771358 32.2131125,31.9854054 C31.9034627,31.493675 31.3391118,31.2232644 30.7618563,31.2900311 L30.7118563,31.2800311 Z" id="Shape" fill-rule="nonzero"></path>
                                </g>
                            </g>
                        </g>
                    </g>
                </g>
            </g>
        </g>
    </g>
</svg>