<?xml version="1.0" encoding="UTF-8"?>
<svg width="59px" height="59px" viewBox="0 0 59 59" version="1.1" xmlns="http://www.w3.org/2000/svg" xmlns:xlink="http://www.w3.org/1999/xlink">
    <!-- Generator: Sketch 49.3 (51167) - http://www.bohemiancoding.com/sketch -->
    <title>noun_pig copy</title>
    <desc>Created with Sketch.</desc>
    <defs></defs>
    <g id="Page-1" stroke="none" stroke-width="1" fill="none" fill-rule="evenodd">
        <g id="Desktop/07_About" transform="translate(-932.000000, -1061.000000)" fill="#EB3449">
            <g id="OpisanieBlock" transform="translate(329.000000, 953.000000)">
                <g id="Content">
                    <g id="Group-4" transform="translate(0.000000, 97.000000)">
                        <g id="Group-7" transform="translate(451.000000, 0.000000)">
                            <g id="noun_calm" transform="translate(141.000000, 0.000000)">
                                <g id="calm" transform="translate(11.000000, 11.000000)">
                                    <path d="M54.9665846,24.9013129 C50.6565846,23.4813129 46.8565846,22.3113129 45.5265846,21.9013129 C44.5765846,20.4613129 41.4465846,16.5713129 34.8465846,15.1013129 C37.5764971,12.7821507 38.5760538,9.00979222 37.3527041,5.64313945 C36.1293544,2.27648668 32.941198,0.0258288495 29.35926,0.000220713899 C25.777322,-0.0253874217 22.5573122,2.17945689 21.285952,5.52827438 C20.0145917,8.87709187 20.9601101,12.6633561 23.6565846,15.0213129 C22.6628039,15.2809482 21.6900402,15.6152313 20.7465846,16.0213129 C17.7239625,17.2360207 15.0846991,19.2431045 13.1065846,21.8313129 C11.8165846,22.2413129 7.97658463,23.4613129 3.62658463,24.9013129 C0.995684248,25.6535957 -0.541797304,28.3809543 0.176584629,31.0213129 C0.790276851,32.9011394 2.5922517,34.1325573 4.56658463,34.0213129 C5.38461113,34.0004705 6.19436583,33.8520155 6.96658463,33.5813129 C9.22658463,32.8613129 14.9665846,30.8113129 17.4865846,29.8713129 L17.4865846,37.2913129 C14.0782728,36.057035 10.3058299,37.7528632 8.96658463,41.1213129 C7.69556701,44.448499 9.34807576,48.1778093 12.6665846,49.4713129 C12.0230523,50.9804408 11.9730513,52.6769031 12.5265846,54.2213129 C13.424658,56.7615574 15.8322958,58.4549293 18.5265846,58.4413129 C19.4724218,58.4323467 20.4095766,58.2598019 21.2965846,57.9313129 L28.1665846,55.4613129 L33.9665846,57.6613129 C35.2402195,58.1688554 36.595713,58.4399541 37.9665846,58.4613129 C39.9776681,58.5467587 41.9064669,57.6568304 43.1465846,56.0713129 C44.4854325,54.2116376 44.6670525,51.7578353 43.6165846,49.7213129 C46.9265846,48.0813129 47.8265846,45.7813129 48.0565846,44.4613129 C48.4037659,42.4152129 47.6292965,40.3397874 46.0265846,39.0213129 C44.5347528,37.8346809 42.6461631,37.262381 40.7465846,37.4213129 L40.7465846,29.7413129 C43.0965846,30.6013129 49.2665846,32.8313129 51.6365846,33.5813129 C52.3865323,33.844961 53.1721364,33.9933154 53.9665846,34.0213129 C55.959949,34.1597548 57.7912658,32.9223786 58.4065846,31.0213129 C58.7715935,29.7533664 58.6131141,28.3920182 57.9666011,27.2418265 C57.3200882,26.0916349 56.2395003,25.248596 54.9665846,24.9013129 Z M35.1265846,17.9013129 L29.4065846,23.6013129 L23.7965846,18.0213129 C25.5806293,17.5485226 27.4211717,17.3230814 29.2665846,17.3513129 C29.2665846,17.3513129 29.3465846,17.2713129 29.3865846,17.2713129 C31.3182516,17.2312509 33.2462682,17.4566909 35.1165846,17.9413129 L35.1265846,17.9013129 Z M23.5165846,8.59131292 C23.5165846,5.40462992 26.0999016,2.82131292 29.2865846,2.82131292 C32.4732676,2.82131292 35.0565846,5.40462992 35.0565846,8.59131292 C35.0565846,11.7779959 32.4732676,14.3613129 29.2865846,14.3613129 C26.1021845,14.3558083 23.5220892,11.7757131 23.5165846,8.59131292 Z M6.09658463,30.9113129 C4.41658463,31.4413129 3.16658463,31.1513129 2.84658463,30.1513129 C2.71239217,29.5807951 2.81247827,28.9802945 3.12445419,28.48414 C3.4364301,27.9879855 3.93426099,27.637582 4.50658463,27.5113129 C9.81658463,25.7613129 14.3565846,24.3213129 14.4065846,24.3113129 C14.7269232,24.2101699 15.0002146,23.9972156 15.1765846,23.7113129 C16.6647397,21.6576964 18.6595435,20.0246446 20.9665846,18.9713129 L37.9665846,36.3813129 L37.9665846,37.9513129 L37.7165846,38.0313129 L28.3265846,41.4513129 L20.2665846,38.3413129 L20.2665846,27.5713129 C20.2583924,26.9561193 19.849522,26.4183706 19.2589095,26.2460129 C18.6682971,26.0736552 18.034374,26.3070867 17.6965846,26.8213129 C16.6665846,27.1913129 8.76658463,30.0213129 6.09658463,30.9113129 Z M14.2265846,47.0913129 C11.4965846,46.0313129 10.9365846,43.8313129 11.5965846,42.0913129 C12.2565846,40.3513129 14.3265846,38.9913129 17.2865846,40.0913129 L24.2865846,42.8013129 L17.2265846,45.3513129 C16.1524828,45.7220432 15.163164,46.3033954 14.3165846,47.0613129 L14.2265846,47.0913129 Z M40.9665846,54.3913129 C39.8765846,55.8213129 37.6465846,56.0213129 34.9665846,55.0213129 L32.2265846,54.0213129 L36.2265846,52.5613129 L41.0765846,50.7913129 C41.73802,51.9119118 41.6952033,53.3131879 40.9665846,54.3913129 Z M41.2865846,40.1513129 C42.3742412,40.1134548 43.4391742,40.4684325 44.2865846,41.1513129 C45.1378423,41.8423886 45.544274,42.9428213 45.3465846,44.0213129 C45.0765846,45.5413129 43.6165846,46.8913129 41.3465846,47.7313129 L35.2765846,49.9513129 C30.2765846,51.7713129 25.9765846,53.3513129 20.4265846,55.3413129 C17.6665846,56.3413129 15.8065846,55.0313129 15.1865846,53.3413129 C14.5665846,51.6513129 15.1865846,49.2113129 18.1865846,48.1313129 C26.9065846,44.9913129 33.0165846,42.7813129 38.6665846,40.7113129 C39.4968566,40.3725262 40.3804112,40.1829513 41.2765846,40.1513129 L41.2865846,40.1513129 Z M55.7565846,30.1513129 C55.4365846,31.1513129 54.1865846,31.4413129 52.5065846,30.9113129 C49.6665846,30.0113129 40.8965846,26.8013129 40.8065846,26.7713129 C40.6966216,26.733864 40.5823977,26.7103474 40.4665846,26.7013129 C40.1008066,26.227649 39.4729166,26.0412764 38.9079517,26.2386738 C38.3429868,26.4360712 37.9677887,26.9729204 37.9765846,27.5713129 L37.9765846,32.3813129 L31.3465846,25.6213129 L37.9665846,19.0213129 C40.1714258,20.0238769 42.0396656,21.642092 43.3465846,23.6813129 C43.5196338,24.0071774 43.8143249,24.2515553 44.1665846,24.3613129 C44.1665846,24.3613129 48.7565846,25.8113129 54.0665846,27.5613129 C55.2433332,27.8160546 55.9937519,28.9729502 55.7465846,30.1513129 L55.7565846,30.1513129 Z" id="Shape" fill-rule="nonzero"></path>
                                </g>
                            </g>
                        </g>
                    </g>
                </g>
            </g>
        </g>
    </g>
</svg>